<?xml version="1.0" encoding="UTF-8" standalone="no"?> <svg xmlns:dc="http://purl.org/dc/elements/1.1/" xmlns:cc="http://creativecommons.org/ns#" xmlns:rdf="http://www.w3.org/1999/02/22-rdf-syntax-ns#" xmlns:svg="http://www.w3.org/2000/svg" xmlns="http://www.w3.org/2000/svg" xmlns:sodipodi="http://sodipodi.sourceforge.net/DTD/sodipodi-0.dtd" xmlns:inkscape="http://www.inkscape.org/namespaces/inkscape" width="662" height="662" viewBox="1.786 1.783 76.226652 76.248" version="1.1" id="svg72" sodipodi:docname="linkedin.svg" inkscape:version="0.92.4 (5da689c313, 2019-01-14)"> <metadata id="metadata78"> <rdf:RDF> <cc:Work rdf:about=""> <dc:format>image/svg+xml</dc:format> <dc:type rdf:resource="http://purl.org/dc/dcmitype/StillImage" /> <dc:title></dc:title> </cc:Work> </rdf:RDF> </metadata> <defs id="defs76" /> <sodipodi:namedview pagecolor="#ffffff" bordercolor="#666666" borderopacity="1" objecttolerance="10" gridtolerance="10" guidetolerance="10" inkscape:pageopacity="0" inkscape:pageshadow="2" inkscape:window-width="1916" inkscape:window-height="1036" id="namedview74" showgrid="false" inkscape:zoom="0.79365665" inkscape:cx="428.70379" inkscape:cy="325.16058" inkscape:window-x="0" inkscape:window-y="20" inkscape:window-maximized="0" inkscape:current-layer="svg72" inkscape:pagecheckerboard="false" /> <path d="m 2.10821,7.2952417 c 0,-3.015 2.508,-5.462 5.6,-5.462 h 64.568 c 3.093,0 5.6,2.447 5.6,5.462 V 72.620242 c 0,3.016 -2.507,5.461 -5.6,5.461 h -64.568 c -3.092,0 -5.6,-2.445 -5.6,-5.46 V 7.2942417 Z" id="path64" inkscape:connector-curvature="0" style="fill:#0b78b7;fill-opacity:1" /> <path d="m 25.07621,65.660242 v -34.43 h -11.444 v 34.43 h 11.445 z m -5.72,-39.13 c 3.99,0 6.474,-2.644 6.474,-5.948 -0.075,-3.379 -2.484,-5.949 -6.398,-5.949 -3.917,0 -6.475,2.57 -6.475,5.949 0,3.304 2.483,5.948 6.324,5.948 h 0.074 z m 12.054,39.13 h 11.443 v -19.225 c 0,-1.028 0.075,-2.058 0.377,-2.792 0.827,-2.057 2.71,-4.186 5.872,-4.186 4.14,0 5.797,3.157 5.797,7.786 v 18.417 h 11.443 v -19.741 c 0,-10.575 -5.645,-15.496 -13.174,-15.496 -6.173,0 -8.884,3.45 -10.39,5.8 h 0.076 v -4.992 h -11.443 c 0.149,3.23 -0.001,34.43 -0.001,34.43 z" id="path70" inkscape:connector-curvature="0" style="fill:#ffffff" /> </svg>